<svg xmlns="http://www.w3.org/2000/svg" width="1279.997" height="1279.997" fill-rule="evenodd" clip-rule="evenodd" image-rendering="optimizeQuality" shape-rendering="geometricPrecision" text-rendering="geometricPrecision" viewBox="0 0 13333.33 13333.33" id="whatsapp">
  <path fill="#fff" d="M6666.67 2260.84c2433.27,0 4405.82,1972.56 4405.82,4405.82 0,2433.27 -1972.56,4405.82 -4405.82,4405.82 -2433.27,0 -4405.82,-1972.56 -4405.82,-4405.82 0,-2433.27 1972.56,-4405.82 4405.82,-4405.82z"></path>
  <path fill-rule="nonzero" d="M6666.67 2088.61c2528.39,0 4578.06,2049.67 4578.06,4578.06 0,2528.39 -2049.67,4578.06 -4578.06,4578.06 -2528.39,0 -4578.06,-2049.67 -4578.06,-4578.06 0,-2528.39 2049.67,-4578.06 4578.06,-4578.06zm4233.59 4578.06c0,-2338.13 -1895.46,-4233.59 -4233.59,-4233.59 -2338.13,0 -4233.59,1895.46 -4233.59,4233.59 0,2338.13 1895.46,4233.59 4233.59,4233.59 2338.13,0 4233.59,-1895.46 4233.59,-4233.59z"></path>
  <path d="M6715.31 8842.69c-459.84,0 -886.19,-138.36 -1245.17,-372.04l-867.34 274.83 280.44 -835.65c-271.07,-366.39 -431.88,-826.3 -431.88,-1317.95 0,-72.91 5.59,-142.07 14.96,-214.98 110.31,-1138.5 1078.7,-2028.33 2249,-2028.33 1188.92,0 2166.65,914.15 2258.19,2069.46 3.76,59.81 3.76,119.63 3.76,173.85 0,1239.44 -1014.98,2250.82 -2261.94,2250.82zm2688.11 -2314.38c-35.47,-1445.09 -1224.39,-2602.27 -2688.11,-2602.27 -1447.06,0 -2626.63,1129.15 -2686.41,2551.79 -3.78,37.39 -3.78,78.52 -3.78,114.04 0,506.61 142.07,977.69 385.14,1383.39l-486.07 1432.01 1491.84 -472.97c385.14,211.22 829.93,329.02 1299.27,329.02 1486.11,0 2693.84,-1192.72 2693.84,-2671.45 0,-22.43 -5.73,-41.13 -5.73,-63.56z"></path>
  <path d="M7424.74 6967.81c-65.56,-16.82 -106.59,-31.78 -153.34,37.4 -67.35,106.55 -209.41,340.23 -347.7,271.07 -69.15,-31.78 -280.35,-100.96 -532.75,-325.29 -196.33,-175.73 -330.86,-386.97 -366.51,-450.53 -57.86,-108.43 125.22,-222.47 192.57,-358.93 22.39,-44.87 13.07,-82.26 -5.56,-114.04 -13.07,-31.78 -145.81,-357.05 -201.89,-486.05 -54.28,-132.74 -110.35,-110.3 -145.81,-110.3 -366.51,0 -538.48,259.85 -538.48,624.38 0,72.91 15.05,151.44 37.44,220.61 65.39,233.68 211.2,422.49 233.77,454.27 31.71,44.85 454.29,725.34 1125.33,987.09 674.81,261.68 674.81,173.83 794.47,164.46 117.87,-9.3 388.9,-155.17 444.97,-312.2 54.28,-151.41 54.28,-284.17 35.47,-312.18 -22.39,-39.25 -571.98,-287.89 -571.98,-289.77z"></path>
</svg>
